<mxfile host="app.diagrams.net" modified="2023-05-15T12:31:39.988Z" agent="Mozilla/5.0 (Windows NT 10.0; Win64; x64) AppleWebKit/537.36 (KHTML, like Gecko) Chrome/112.0.0.0 Safari/537.36 Edg/112.0.1722.64" etag="iXN852GvU-iPgh_Ulgi2" version="21.2.9" type="device">
  <diagram name="Page-1" id="ZVnGuhvKV3e5-KHtyUUD">
    <mxGraphModel dx="1136" dy="661" grid="1" gridSize="10" guides="1" tooltips="1" connect="1" arrows="1" fold="1" page="1" pageScale="1" pageWidth="850" pageHeight="1100" math="0" shadow="0">
      <root>
        <mxCell id="0" />
        <mxCell id="1" parent="0" />
        <mxCell id="UozxXZpEKcWx4M0fo2hY-1" value="" style="rounded=1;whiteSpace=wrap;html=1;" parent="1" vertex="1">
          <mxGeometry x="170" y="200" width="210" height="60" as="geometry" />
        </mxCell>
        <mxCell id="UozxXZpEKcWx4M0fo2hY-2" value="" style="rounded=1;whiteSpace=wrap;html=1;" parent="1" vertex="1">
          <mxGeometry x="400" y="200" width="210" height="60" as="geometry" />
        </mxCell>
        <mxCell id="UozxXZpEKcWx4M0fo2hY-3" value="Text" style="text;html=1;strokeColor=none;fillColor=none;align=center;verticalAlign=middle;whiteSpace=wrap;rounded=0;" parent="1" vertex="1">
          <mxGeometry x="350" y="160" width="60" height="30" as="geometry" />
        </mxCell>
        <mxCell id="UozxXZpEKcWx4M0fo2hY-4" value="" style="whiteSpace=wrap;html=1;aspect=fixed;" parent="1" vertex="1">
          <mxGeometry x="170" y="320" width="80" height="80" as="geometry" />
        </mxCell>
        <mxCell id="UozxXZpEKcWx4M0fo2hY-5" value="" style="rounded=0;whiteSpace=wrap;html=1;" parent="1" vertex="1">
          <mxGeometry x="510" y="320" width="100" height="30" as="geometry" />
        </mxCell>
        <mxCell id="UozxXZpEKcWx4M0fo2hY-6" value="" style="shape=process;whiteSpace=wrap;html=1;backgroundOutline=1;" parent="1" vertex="1">
          <mxGeometry x="170" y="270" width="440" height="20" as="geometry" />
        </mxCell>
        <mxCell id="UozxXZpEKcWx4M0fo2hY-7" value="" style="whiteSpace=wrap;html=1;aspect=fixed;" parent="1" vertex="1">
          <mxGeometry x="280" y="320" width="80" height="80" as="geometry" />
        </mxCell>
        <mxCell id="UozxXZpEKcWx4M0fo2hY-8" value="" style="whiteSpace=wrap;html=1;aspect=fixed;" parent="1" vertex="1">
          <mxGeometry x="400" y="320" width="80" height="80" as="geometry" />
        </mxCell>
        <mxCell id="UozxXZpEKcWx4M0fo2hY-10" value="" style="rounded=0;whiteSpace=wrap;html=1;" parent="1" vertex="1">
          <mxGeometry x="170" y="430" width="100" height="30" as="geometry" />
        </mxCell>
        <mxCell id="UozxXZpEKcWx4M0fo2hY-11" value="List" style="swimlane;fontStyle=0;childLayout=stackLayout;horizontal=1;startSize=30;horizontalStack=0;resizeParent=1;resizeParentMax=0;resizeLast=0;collapsible=1;marginBottom=0;whiteSpace=wrap;html=1;" parent="1" vertex="1">
          <mxGeometry x="510" y="400" width="100" height="120" as="geometry" />
        </mxCell>
        <mxCell id="UozxXZpEKcWx4M0fo2hY-12" value="Item 1" style="text;strokeColor=none;fillColor=none;align=left;verticalAlign=middle;spacingLeft=4;spacingRight=4;overflow=hidden;points=[[0,0.5],[1,0.5]];portConstraint=eastwest;rotatable=0;whiteSpace=wrap;html=1;" parent="UozxXZpEKcWx4M0fo2hY-11" vertex="1">
          <mxGeometry y="30" width="100" height="30" as="geometry" />
        </mxCell>
        <mxCell id="UozxXZpEKcWx4M0fo2hY-13" value="Item 2" style="text;strokeColor=none;fillColor=none;align=left;verticalAlign=middle;spacingLeft=4;spacingRight=4;overflow=hidden;points=[[0,0.5],[1,0.5]];portConstraint=eastwest;rotatable=0;whiteSpace=wrap;html=1;" parent="UozxXZpEKcWx4M0fo2hY-11" vertex="1">
          <mxGeometry y="60" width="100" height="30" as="geometry" />
        </mxCell>
        <mxCell id="UozxXZpEKcWx4M0fo2hY-14" value="Item 3" style="text;strokeColor=none;fillColor=none;align=left;verticalAlign=middle;spacingLeft=4;spacingRight=4;overflow=hidden;points=[[0,0.5],[1,0.5]];portConstraint=eastwest;rotatable=0;whiteSpace=wrap;html=1;" parent="UozxXZpEKcWx4M0fo2hY-11" vertex="1">
          <mxGeometry y="90" width="100" height="30" as="geometry" />
        </mxCell>
        <mxCell id="UozxXZpEKcWx4M0fo2hY-15" value="" style="shape=process;whiteSpace=wrap;html=1;backgroundOutline=1;" parent="1" vertex="1">
          <mxGeometry x="170" y="560" width="440" height="50" as="geometry" />
        </mxCell>
        <mxCell id="UozxXZpEKcWx4M0fo2hY-16" value="" style="swimlane;startSize=0;" parent="1" vertex="1">
          <mxGeometry x="280" y="430" width="200" height="90" as="geometry" />
        </mxCell>
      </root>
    </mxGraphModel>
  </diagram>
</mxfile>
